<svg width="101" height="24" viewBox="0 0 101 24" fill="none" xmlns="http://www.w3.org/2000/svg">
<path d="M9.512 19.24C8.072 19.24 6.768 19.032 5.6 18.616C4.448 18.184 3.464 17.576 2.648 16.792C1.848 15.992 1.224 15.032 0.776 13.912C0.344 12.776 0.128 11.504 0.128 10.096C0.128 8.64 0.36 7.312 0.824 6.112C1.304 4.896 1.968 3.856 2.816 2.992C3.664 2.128 4.68 1.464 5.864 0.999999C7.048 0.519999 8.36 0.279999 9.8 0.279999C10.792 0.279999 11.736 0.415999 12.632 0.688C13.528 0.959999 14.496 1.4 15.536 2.008L15.992 0.519999H16.856V6.592H15.656C15.336 5.088 14.688 3.92 13.712 3.088C12.752 2.256 11.544 1.84 10.088 1.84C8.248 1.84 6.816 2.552 5.792 3.976C4.784 5.384 4.28 7.36 4.28 9.904C4.28 12.4 4.776 14.312 5.768 15.64C6.76 16.968 8.2 17.632 10.088 17.632C11.448 17.632 12.504 17.288 13.256 16.6C14.024 15.896 14.408 14.928 14.408 13.696C14.408 12.96 14.216 12.424 13.832 12.088C13.448 11.736 12.8 11.52 11.888 11.44V10.48H19.664V11.44C18.88 11.44 18.336 11.616 18.032 11.968C17.728 12.304 17.576 12.92 17.576 13.816V17.008C17.224 17.008 16.928 17.024 16.688 17.056C16.448 17.072 16.208 17.12 15.968 17.2C15.744 17.264 15.488 17.376 15.2 17.536C14.912 17.696 14.552 17.904 14.12 18.16C12.888 18.88 11.352 19.24 9.512 19.24ZM25.8074 9.28C26.5274 9.28 27.2054 9.406 27.8414 9.658C28.4894 9.898 29.0534 10.234 29.5334 10.666C30.0254 11.098 30.4094 11.614 30.6854 12.214C30.9734 12.802 31.1174 13.45 31.1174 14.158C31.1174 14.89 30.9734 15.562 30.6854 16.174C30.4094 16.786 30.0254 17.314 29.5334 17.758C29.0534 18.202 28.4894 18.55 27.8414 18.802C27.2054 19.054 26.5274 19.18 25.8074 19.18C25.0994 19.18 24.4274 19.06 23.7914 18.82C23.1554 18.568 22.5974 18.22 22.1174 17.776C21.6374 17.332 21.2594 16.804 20.9834 16.192C20.7074 15.568 20.5694 14.89 20.5694 14.158C20.5694 13.45 20.7074 12.796 20.9834 12.196C21.2594 11.596 21.6374 11.08 22.1174 10.648C22.5974 10.216 23.1554 9.88 23.7914 9.64C24.4274 9.4 25.0994 9.28 25.8074 9.28ZM25.8074 10.324C25.4474 10.324 25.1174 10.42 24.8174 10.612C24.5174 10.792 24.2594 11.05 24.0434 11.386C23.8394 11.722 23.6774 12.13 23.5574 12.61C23.4494 13.078 23.3954 13.6 23.3954 14.176C23.3954 14.776 23.4494 15.316 23.5574 15.796C23.6774 16.276 23.8394 16.684 24.0434 17.02C24.2594 17.356 24.5114 17.62 24.7994 17.812C25.0994 17.992 25.4354 18.082 25.8074 18.082C26.1794 18.082 26.5154 17.992 26.8154 17.812C27.1274 17.62 27.3914 17.356 27.6074 17.02C27.8234 16.672 27.9914 16.258 28.1114 15.778C28.2314 15.298 28.2914 14.764 28.2914 14.176C28.2914 13.6 28.2314 13.078 28.1114 12.61C27.9914 12.142 27.8234 11.74 27.6074 11.404C27.3914 11.056 27.1274 10.792 26.8154 10.612C26.5154 10.42 26.1794 10.324 25.8074 10.324ZM38.5843 8.776C39.6083 8.776 40.4323 8.744 41.0563 8.68C41.6803 8.616 42.1603 8.488 42.4963 8.296C42.8483 8.088 43.0963 7.792 43.2403 7.408C43.3843 7.024 43.4963 6.504 43.5763 5.848H44.4643V12.88H43.5763C43.4803 12.24 43.3523 11.728 43.1923 11.344C43.0323 10.96 42.7763 10.672 42.4243 10.48C42.0723 10.272 41.5923 10.144 40.9843 10.096C40.3923 10.032 39.5923 10 38.5843 10V14.944C38.5843 15.456 38.6483 15.888 38.7763 16.24C38.9203 16.592 39.1523 16.88 39.4723 17.104C39.7923 17.312 40.2163 17.464 40.7443 17.56C41.2723 17.64 41.9203 17.68 42.6883 17.68C43.6003 17.68 44.3683 17.616 44.9923 17.488C45.6323 17.36 46.1603 17.136 46.5763 16.816C46.9923 16.496 47.3283 16.072 47.5843 15.544C47.8403 15 48.0563 14.32 48.2323 13.504H49.1923L48.8083 19H32.5363V18.04C33.0643 18.024 33.4963 17.976 33.8323 17.896C34.1683 17.816 34.4243 17.68 34.6003 17.488C34.7763 17.296 34.8963 17.024 34.9603 16.672C35.0243 16.32 35.0563 15.864 35.0563 15.304V4.216C35.0563 3.656 35.0243 3.208 34.9603 2.872C34.9123 2.52 34.8083 2.248 34.6483 2.056C34.4883 1.848 34.2563 1.712 33.9523 1.648C33.6643 1.568 33.2803 1.512 32.8003 1.48V0.519999H47.9683L48.1363 5.224H47.1043C47.0083 4.552 46.8563 4 46.6483 3.568C46.4403 3.12 46.1523 2.768 45.7843 2.512C45.4163 2.24 44.9363 2.056 44.3443 1.96C43.7683 1.848 43.0563 1.792 42.2083 1.792H39.4963C39.0803 1.792 38.8243 1.848 38.7283 1.96C38.6323 2.056 38.5843 2.296 38.5843 2.68V8.776ZM57.2124 11.728C57.4644 11.404 57.6324 11.176 57.7164 11.044C57.8004 10.912 57.8424 10.78 57.8424 10.648C57.8424 10.48 57.7704 10.36 57.6264 10.288C57.4944 10.216 57.2664 10.18 56.9424 10.18V9.46H61.0824V10.18C60.8544 10.192 60.6504 10.216 60.4704 10.252C60.2904 10.288 60.1104 10.36 59.9304 10.468C59.7504 10.564 59.5644 10.702 59.3724 10.882C59.1804 11.062 58.9584 11.296 58.7064 11.584L56.8704 13.708L59.7144 17.362C59.9904 17.722 60.2604 17.968 60.5244 18.1C60.7884 18.22 61.1184 18.28 61.5144 18.28V19H55.7904V18.28C56.1384 18.28 56.3784 18.25 56.5104 18.19C56.6544 18.13 56.7264 18.016 56.7264 17.848C56.7264 17.716 56.6844 17.578 56.6004 17.434C56.5164 17.278 56.3904 17.08 56.2224 16.84L55.1784 15.4L54.3864 16.354C54.1824 16.606 54.0204 16.81 53.9004 16.966C53.7804 17.122 53.6904 17.248 53.6304 17.344C53.5704 17.44 53.5284 17.518 53.5044 17.578C53.4924 17.626 53.4864 17.674 53.4864 17.722C53.4864 17.926 53.5704 18.07 53.7384 18.154C53.9184 18.238 54.2004 18.28 54.5844 18.28V19H50.0664V18.28C50.4504 18.28 50.8224 18.226 51.1824 18.118C51.5424 17.998 51.8244 17.818 52.0284 17.578L54.5304 14.644L51.5244 10.828C51.2964 10.54 51.0924 10.36 50.9124 10.288C50.7444 10.216 50.5104 10.18 50.2104 10.18V9.46H55.7004V10.18C55.0884 10.18 54.7824 10.348 54.7824 10.684C54.7824 10.804 54.8484 10.96 54.9804 11.152L56.2584 12.952L57.2124 11.728ZM65.4103 10.63H65.4823C66.2743 9.73 67.3063 9.28 68.5783 9.28C69.2743 9.28 69.9103 9.406 70.4863 9.658C71.0743 9.898 71.5783 10.24 71.9983 10.684C72.4303 11.116 72.7603 11.638 72.9883 12.25C73.2283 12.85 73.3483 13.51 73.3483 14.23C73.3483 14.95 73.2283 15.61 72.9883 16.21C72.7603 16.81 72.4363 17.332 72.0163 17.776C71.5963 18.22 71.0923 18.568 70.5043 18.82C69.9283 19.06 69.2983 19.18 68.6143 19.18C67.4503 19.18 66.5623 18.784 65.9503 17.992H65.8783V20.494C65.8783 20.974 65.9023 21.358 65.9503 21.646C65.9983 21.934 66.1003 22.156 66.2563 22.312C66.4123 22.468 66.6283 22.576 66.9043 22.636C67.1923 22.696 67.5703 22.732 68.0383 22.744V23.5H61.8283V22.744C62.1523 22.732 62.4163 22.696 62.6203 22.636C62.8243 22.576 62.9803 22.468 63.0883 22.312C63.2083 22.156 63.2863 21.94 63.3223 21.664C63.3703 21.4 63.3943 21.052 63.3943 20.62V13.924C63.3943 13.372 63.3823 12.85 63.3583 12.358C63.3343 11.854 63.3043 11.5 63.2683 11.296C63.2083 11.02 63.0703 10.828 62.8543 10.72C62.6503 10.612 62.2963 10.558 61.7923 10.558V9.856L65.4103 9.352V10.63ZM68.4703 10.306C68.0863 10.306 67.7203 10.39 67.3723 10.558C67.0243 10.726 66.7483 10.948 66.5443 11.224C66.3403 11.5 66.1843 11.848 66.0763 12.268C65.9683 12.676 65.9143 13.12 65.9143 13.6V14.824C65.9143 15.676 66.1243 16.402 66.5443 17.002C67.0003 17.662 67.6423 17.992 68.4703 17.992C69.2023 17.992 69.7423 17.692 70.0903 17.092C70.4503 16.48 70.6303 15.538 70.6303 14.266C70.6303 11.626 69.9103 10.306 68.4703 10.306ZM83.667 17.326C82.575 18.562 81.213 19.18 79.581 19.18C78.837 19.18 78.159 19.066 77.547 18.838C76.947 18.598 76.431 18.268 75.999 17.848C75.567 17.416 75.231 16.906 74.991 16.318C74.751 15.73 74.631 15.076 74.631 14.356C74.631 13.612 74.757 12.934 75.009 12.322C75.261 11.698 75.615 11.164 76.071 10.72C76.539 10.264 77.085 9.91 77.709 9.658C78.345 9.406 79.041 9.28 79.797 9.28C81.069 9.28 82.059 9.622 82.767 10.306C83.475 10.99 83.829 11.95 83.829 13.186C83.829 13.378 83.799 13.498 83.739 13.546C83.679 13.582 83.511 13.6 83.235 13.6H77.439C77.391 13.708 77.367 13.906 77.367 14.194C77.367 15.37 77.619 16.3 78.123 16.984C78.639 17.668 79.335 18.01 80.211 18.01C80.715 18.01 81.213 17.896 81.705 17.668C82.209 17.44 82.695 17.116 83.163 16.696L83.667 17.326ZM80.175 12.592C80.655 12.592 80.961 12.568 81.093 12.52C81.237 12.46 81.309 12.328 81.309 12.124C81.309 11.596 81.159 11.164 80.859 10.828C80.559 10.492 80.181 10.324 79.725 10.324C79.209 10.324 78.747 10.54 78.339 10.972C77.943 11.392 77.685 11.932 77.565 12.592H80.175ZM89.0303 16.21C89.0303 16.678 89.0483 17.05 89.0843 17.326C89.1323 17.59 89.2223 17.794 89.3543 17.938C89.4863 18.082 89.6783 18.178 89.9303 18.226C90.1823 18.262 90.5183 18.28 90.9383 18.28V19H84.9263V18.28C85.2863 18.256 85.5743 18.22 85.7903 18.172C86.0063 18.124 86.1683 18.028 86.2763 17.884C86.3843 17.74 86.4503 17.536 86.4743 17.272C86.5103 16.996 86.5283 16.63 86.5283 16.174V13.978C86.5283 13.234 86.5103 12.64 86.4743 12.196C86.4383 11.752 86.3603 11.41 86.2403 11.17C86.1203 10.93 85.9463 10.774 85.7183 10.702C85.5023 10.618 85.2143 10.576 84.8543 10.576V9.946L88.4543 9.28L88.7423 11.35H88.8143C89.1383 10.714 89.5643 10.21 90.0923 9.838C90.6203 9.466 91.1783 9.28 91.7663 9.28C92.2223 9.28 92.5943 9.394 92.8823 9.622C93.1703 9.85 93.3143 10.138 93.3143 10.486C93.3143 10.87 93.2003 11.194 92.9723 11.458C92.7563 11.722 92.4563 11.854 92.0723 11.854C91.8923 11.854 91.7303 11.818 91.5863 11.746C91.4423 11.674 91.3103 11.596 91.1903 11.512C91.0823 11.416 90.9683 11.332 90.8483 11.26C90.7403 11.176 90.6263 11.134 90.5063 11.134C90.2783 11.134 90.0623 11.284 89.8583 11.584C89.6543 11.884 89.4863 12.286 89.3543 12.79C89.2583 13.15 89.1803 13.558 89.1203 14.014C89.0603 14.458 89.0303 14.902 89.0303 15.346V16.21ZM93.7112 10.45V9.64C94.4312 9.436 95.0312 9.13 95.5112 8.722C96.0032 8.302 96.3692 7.822 96.6092 7.282H97.5272V9.46H99.5972V10.45H97.5272V15.976C97.5272 16.72 97.6052 17.248 97.7612 17.56C97.9292 17.872 98.2052 18.028 98.5892 18.028C99.0572 18.028 99.4112 17.812 99.6512 17.38L100.029 17.902C99.6932 18.754 98.9012 19.18 97.6532 19.18C96.8252 19.18 96.1772 18.988 95.7092 18.604C95.2532 18.22 95.0252 17.68 95.0252 16.984V10.45H93.7112Z" fill="url(#paint0_linear)"/>
<defs>
<linearGradient id="paint0_linear" x1="-1" y1="10.8315" x2="101" y2="10.8315" gradientUnits="userSpaceOnUse">
<stop stop-color="#6366AA"/>
<stop offset="1" stop-color="#69B1BB"/>
</linearGradient>
</defs>
</svg>
